<?xml version="1.0" encoding="UTF-8"?>
<svg id="Layer_2" data-name="Layer 2" xmlns="http://www.w3.org/2000/svg" viewBox="0 0 740 741.03">
  <defs>
    <style>
      .cls-1, .cls-2, .cls-3, .cls-4 {
        fill: #fff;
      }

      .cls-1, .cls-5, .cls-6 {
        font-family: ReportSchoolRg-Regular, 'Report School';
        font-size: 18.63px;
        letter-spacing: 0em;
      }

      .cls-7, .cls-8, .cls-9, .cls-10, .cls-11, .cls-12, .cls-13, .cls-14 {
        fill: none;
        stroke-linecap: round;
        stroke-linejoin: round;
      }

      .cls-7, .cls-10 {
        stroke: #231f20;
      }

      .cls-2, .cls-15, .cls-16, .cls-4, .cls-17, .cls-18 {
        font-family: AdleryPro-Regular, 'Adlery Pro';
      }

      .cls-2, .cls-16, .cls-17 {
        font-size: 34.86px;
      }

      .cls-15, .cls-16, .cls-6, .cls-19 {
        fill: #231f20;
      }

      .cls-15, .cls-4, .cls-18 {
        font-size: 34.67px;
      }

      .cls-8, .cls-10, .cls-12, .cls-13 {
        stroke-width: 2px;
      }

      .cls-8, .cls-14 {
        stroke: #dce0df;
      }

      .cls-5, .cls-20 {
        fill: #8477b7;
      }

      .cls-9 {
        stroke: #837dbb;
      }

      .cls-21 {
        letter-spacing: 0em;
      }

      .cls-22 {
        letter-spacing: 0em;
      }

      .cls-17, .cls-18 {
        fill: #5c3b74;
      }

      .cls-11 {
        stroke: #e8b855;
      }

      .cls-23 {
        letter-spacing: .03em;
      }

      .cls-12 {
        stroke: #8477b7;
      }

      .cls-13 {
        stroke: #5c3b74;
      }
    </style>
  </defs>
  <g id="Logo_Adjustments" data-name="Logo Adjustments">
    <g>
      <g>
        <rect class="cls-3" width="360" height="360"/>
        <g>
          <g>
            <path class="cls-10" d="M62.24,175.55c4.47-8.68,13.97-13.26,22.86-11.34,7.34,1.59,13.27,7.42,15.36,15,8.81-1.67,16.64,4.21,17.56,11.34,.7,5.48-2.73,11.33-8.59,14.08-.15,.85-1.7,9.1-9.33,12.8-6.34,3.08-14.26,1.72-19.75-3.47-.69,.96-6.77,9.19-17.56,9.51-12.56,.37-19.46-10.33-19.75-10.79-.64,.29-4.36,1.91-8.23,.18-3.77-1.68-6.14-5.84-5.85-10.42-5.41-2.62-8.66-7.65-8.05-11.89,.83-5.74,8.92-11.13,18.1-8.23,1.48-5.57,5.94-9.74,11.34-10.61,6.58-1.06,11.33,3.31,11.89,3.84Z"/>
            <path class="cls-10" d="M62.24,175.55s-4.14,8.72,4.27,10.06c0,0,5.49,1.1,7.56-4.51,0,0,1.58-3.78-2.68-5,0,0-3.66-.12-2.68,3.9"/>
            <path class="cls-10" d="M43.04,212.68s-2.01-7.56,3.47-9.51c0,0,7.07-3.05,8.66,3.41,0,0,1.71,6.83-5.73,5.12,0,0-2.2-1.46-.43-3.05"/>
            <path class="cls-10" d="M109.42,204.63s-13.72-1.15-10.97-9.86c0,0,2.97-6.31,6.86-3.47,0,0,5.69,3.69,1.26,6.29-4.29,2.52-3.94-2.62-3.77-2.36"/>
            <path class="cls-10" d="M109.91,180.3c4.65-2.61,10.09-6.96,9.7-12.9s-5.94-9.67-10.58-11.95c-5.13-2.52-11.22-3.57-17.03-2.82-10.11,1.31-14.17,7.59-29.94,12.2-7.29,2.13-10.91,2.29-18.47,1.07-6.23-1-15.24-5.81-18.31-11.14-2.85-4.94-2.52-11.11,.74-15.78,2.34-3.36,6.02-7.51,10.41-8.55,2.93-.69,5.2,6.47,6.79,8.33,8.32,9.73,22.12,4.37,31.17-1.33,6.11-3.85,11.05-9.46,17.95-12.01,6.12-2.26,12.88-2.77,19.31-1.76,7.15,1.12,13.85,4.07,20.03,7.78,19.03,11.44,29.68,40.51,12.02,57.98-1.19,1.18-2.5,2.25-3.92,3.14-7.02,4.41-16.27,8.37-24.71,7.61"/>
            <path class="cls-7" d="M86.86,153.84c3.93-2.95,7.04-4.46,11.94-5.28,12.6-2.09,30.73,8.63,25.96,22.92-2.16,6.49-12.47,11.47-14.85,8.81"/>
            <path class="cls-7" d="M38.01,130.61s-2.73,10.18,9.47,15.63c3.35,1.5,7.07,1.94,10.68,1.3,10.54-1.89,19.66-8.48,28.46-14.32,12.63-8.37,25.48-6.46,36.89-1.57,9.86,4.22,20.9,15.07,23.18,26,1.56,7.46,4.48,32.03-30.37,40.73"/>
            <path class="cls-7" d="M13.3,160.36c-.41-2.22,.77-4.04,1.95-4.27,1.27-.25,3.25,1.23,3.41,3.78,2-1.3,4.03-1.04,4.51-.24,.46,.77-.2,2.58-2.07,3.78,1.93,1.59,2.62,3.59,2.07,4.39-.58,.84-2.91,.9-5.24-.73-1.64,2.47-3.7,3.53-4.51,3.05-.78-.47-.81-2.67,.37-5.12-2.83,.21-4.96-.56-5.12-1.46-.16-.92,1.65-2.46,4.63-3.17Z"/>
            <path class="cls-7" d="M33.25,218.54c1.11-1.57,2.87-2.02,3.67-1.5,.86,.56,1.08,2.56-.37,4.2,1.91,.33,2.89,1.62,2.68,2.37-.2,.73-1.67,1.45-3.44,1.14,.12,2.04-.69,3.64-1.49,3.82-.83,.19-2.18-1.08-2.5-3.37-2.41,.58-4.21,.08-4.37-.67-.16-.72,1.16-2.07,3.3-2.9-1.72-1.45-2.44-3.11-1.99-3.74,.46-.65,2.41-.57,4.51,.66Z"/>
            <path class="cls-7" d="M123.11,184.12c-1.09-1.34-1.09-2.95-.48-3.5,.66-.59,2.38-.28,3.45,1.36,.68-1.54,1.97-2.05,2.56-1.68,.57,.35,.86,1.78,.22,3.21,1.74,.41,2.91,1.5,2.89,2.22-.02,.75-1.37,1.58-3.36,1.28-.02,2.19-.83,3.6-1.49,3.55-.64-.05-1.49-1.5-1.74-3.53-1.58,1.1-3.13,1.3-3.57,.75-.45-.56,.03-2.19,1.51-3.67Z"/>
          </g>
          <text class="cls-16" transform="translate(154.21 193.63)"><tspan x="0" y="0">Skys </tspan><tspan class="cls-23" x="75.09" y="0">th</tspan><tspan class="cls-21" x="101.52" y="0">e Lim</tspan><tspan class="cls-22" x="168.24" y="0">it</tspan></text>
          <text class="cls-15" transform="translate(197.95 193.63)"><tspan x="0" y="0">‘</tspan></text>
          <text class="cls-6" transform="translate(110.98 220.82)"><tspan x="0" y="0">Apparel, Acessories, and more!</tspan></text>
        </g>
      </g>
      <g>
        <rect class="cls-19" x="380" y="1.03" width="360" height="360"/>
        <g>
          <g>
            <path class="cls-8" d="M442.24,176.58c4.47-8.68,13.97-13.26,22.86-11.34,7.34,1.59,13.27,7.42,15.36,15,8.81-1.67,16.64,4.21,17.56,11.34,.7,5.48-2.73,11.33-8.59,14.08-.15,.85-1.7,9.1-9.33,12.8-6.34,3.08-14.26,1.72-19.75-3.47-.69,.96-6.77,9.19-17.56,9.51-12.56,.37-19.46-10.33-19.75-10.79-.64,.29-4.36,1.91-8.23,.18-3.77-1.68-6.14-5.84-5.85-10.42-5.41-2.62-8.66-7.65-8.05-11.89,.83-5.74,8.92-11.13,18.1-8.23,1.48-5.57,5.94-9.74,11.34-10.61,6.58-1.06,11.33,3.31,11.89,3.84Z"/>
            <path class="cls-8" d="M442.24,176.58s-4.14,8.72,4.27,10.06c0,0,5.49,1.1,7.56-4.51,0,0,1.58-3.78-2.68-5,0,0-3.66-.12-2.68,3.9"/>
            <path class="cls-8" d="M423.04,213.71s-2.01-7.56,3.47-9.51c0,0,7.07-3.05,8.66,3.41,0,0,1.71,6.83-5.73,5.12,0,0-2.2-1.46-.43-3.05"/>
            <path class="cls-8" d="M489.42,205.66s-13.72-1.15-10.97-9.86c0,0,2.97-6.31,6.86-3.47,0,0,5.69,3.69,1.26,6.29-4.29,2.52-3.94-2.62-3.77-2.36"/>
            <path class="cls-8" d="M489.91,181.33c4.65-2.61,10.09-6.96,9.7-12.9-.37-5.65-5.94-9.67-10.58-11.95-5.13-2.52-11.22-3.57-17.03-2.82-10.11,1.31-14.17,7.59-29.94,12.2-7.29,2.13-10.91,2.29-18.47,1.07-6.23-1-15.24-5.81-18.31-11.14-2.85-4.94-2.52-11.11,.74-15.78,2.34-3.36,6.02-7.51,10.41-8.55,2.93-.69,5.2,6.47,6.79,8.33,8.32,9.73,22.12,4.37,31.17-1.33,6.11-3.85,11.05-9.46,17.95-12.01,6.12-2.26,12.88-2.77,19.31-1.76,7.15,1.12,13.85,4.07,20.03,7.78,19.03,11.44,29.68,40.51,12.02,57.98-1.19,1.18-2.5,2.25-3.92,3.14-7.02,4.41-16.27,8.37-24.71,7.61"/>
            <path class="cls-14" d="M466.86,154.88c3.93-2.95,7.04-4.46,11.94-5.28,12.6-2.09,30.73,8.63,25.96,22.92-2.16,6.49-12.47,11.47-14.85,8.81"/>
            <path class="cls-14" d="M418.01,131.64s-2.73,10.18,9.47,15.63c3.35,1.5,7.07,1.94,10.68,1.3,10.54-1.89,19.66-8.48,28.46-14.32,12.63-8.37,25.48-6.46,36.89-1.57,9.86,4.22,20.9,15.07,23.18,26,1.56,7.46,4.48,32.03-30.37,40.73"/>
            <path class="cls-14" d="M393.3,161.39c-.41-2.22,.77-4.04,1.95-4.27,1.27-.25,3.25,1.23,3.41,3.78,2-1.3,4.03-1.04,4.51-.24,.46,.77-.2,2.58-2.07,3.78,1.93,1.59,2.62,3.59,2.07,4.39-.58,.84-2.91,.9-5.24-.73-1.64,2.47-3.7,3.53-4.51,3.05-.78-.47-.81-2.67,.37-5.12-2.83,.21-4.96-.56-5.12-1.46-.16-.92,1.65-2.46,4.63-3.17Z"/>
            <path class="cls-14" d="M413.25,219.57c1.11-1.57,2.87-2.02,3.67-1.5,.86,.56,1.08,2.56-.37,4.2,1.91,.33,2.89,1.62,2.68,2.37-.2,.73-1.67,1.45-3.44,1.14,.12,2.04-.69,3.64-1.49,3.82-.83,.19-2.18-1.08-2.5-3.37-2.41,.58-4.21,.08-4.37-.67-.16-.72,1.16-2.07,3.3-2.9-1.72-1.45-2.44-3.11-1.99-3.74,.46-.65,2.41-.57,4.51,.66Z"/>
            <path class="cls-14" d="M503.11,185.16c-1.09-1.34-1.09-2.95-.48-3.5,.66-.59,2.38-.28,3.45,1.36,.68-1.54,1.97-2.05,2.56-1.68,.57,.35,.86,1.78,.22,3.21,1.74,.41,2.91,1.5,2.89,2.22-.02,.75-1.37,1.58-3.36,1.28-.02,2.19-.83,3.6-1.49,3.55-.64-.05-1.49-1.5-1.74-3.53-1.58,1.1-3.13,1.3-3.57,.75-.45-.56,.03-2.19,1.51-3.67Z"/>
          </g>
          <text class="cls-2" transform="translate(534.21 194.66)"><tspan x="0" y="0">Skys </tspan><tspan class="cls-23" x="75.09" y="0">th</tspan><tspan class="cls-21" x="101.52" y="0">e Lim</tspan><tspan class="cls-22" x="168.24" y="0">it</tspan></text>
          <text class="cls-4" transform="translate(577.95 194.66)"><tspan x="0" y="0">‘</tspan></text>
          <text class="cls-1" transform="translate(490.98 221.85)"><tspan x="0" y="0">Apparel, Acessories, and more!</tspan></text>
        </g>
      </g>
      <g>
        <rect class="cls-20" x="380" y="380.63" width="360" height="360"/>
        <g>
          <g>
            <path class="cls-8" d="M442.24,556.18c4.47-8.68,13.97-13.26,22.86-11.34,7.34,1.59,13.27,7.42,15.36,15,8.81-1.67,16.64,4.21,17.56,11.34,.7,5.48-2.73,11.33-8.59,14.08-.15,.85-1.7,9.1-9.33,12.8-6.34,3.08-14.26,1.72-19.75-3.47-.69,.96-6.77,9.19-17.56,9.51-12.56,.37-19.46-10.33-19.75-10.79-.64,.29-4.36,1.91-8.23,.18-3.77-1.68-6.14-5.84-5.85-10.42-5.41-2.62-8.66-7.65-8.05-11.89,.83-5.74,8.92-11.13,18.1-8.23,1.48-5.57,5.94-9.74,11.34-10.61,6.58-1.06,11.33,3.31,11.89,3.84Z"/>
            <path class="cls-8" d="M442.24,556.18s-4.14,8.72,4.27,10.06c0,0,5.49,1.1,7.56-4.51,0,0,1.58-3.78-2.68-5,0,0-3.66-.12-2.68,3.9"/>
            <path class="cls-8" d="M423.04,593.3s-2.01-7.56,3.47-9.51c0,0,7.07-3.05,8.66,3.41,0,0,1.71,6.83-5.73,5.12,0,0-2.2-1.46-.43-3.05"/>
            <path class="cls-8" d="M489.42,585.25s-13.72-1.15-10.97-9.86c0,0,2.97-6.31,6.86-3.47,0,0,5.69,3.69,1.26,6.29-4.29,2.52-3.94-2.62-3.77-2.36"/>
            <path class="cls-8" d="M489.91,560.93c4.65-2.61,10.09-6.96,9.7-12.9-.37-5.65-5.94-9.67-10.58-11.95-5.13-2.52-11.22-3.57-17.03-2.82-10.11,1.31-14.17,7.59-29.94,12.2-7.29,2.13-10.91,2.29-18.47,1.07-6.23-1-15.24-5.81-18.31-11.14-2.85-4.94-2.52-11.11,.74-15.78,2.34-3.36,6.02-7.51,10.41-8.55,2.93-.69,5.2,6.47,6.79,8.33,8.32,9.73,22.12,4.37,31.17-1.33,6.11-3.85,11.05-9.46,17.95-12.01,6.12-2.26,12.88-2.77,19.31-1.76,7.15,1.12,13.85,4.07,20.03,7.78,19.03,11.44,29.68,40.51,12.02,57.98-1.19,1.18-2.5,2.25-3.92,3.14-7.02,4.41-16.27,8.37-24.71,7.61"/>
            <path class="cls-14" d="M466.86,534.47c3.93-2.95,7.04-4.46,11.94-5.28,12.6-2.09,30.73,8.63,25.96,22.92-2.16,6.49-12.47,11.47-14.85,8.81"/>
            <path class="cls-14" d="M418.01,511.24s-2.73,10.18,9.47,15.63c3.35,1.5,7.07,1.94,10.68,1.3,10.54-1.89,19.66-8.48,28.46-14.32,12.63-8.37,25.48-6.46,36.89-1.57,9.86,4.22,20.9,15.07,23.18,26,1.56,7.46,4.48,32.03-30.37,40.73"/>
            <path class="cls-14" d="M393.3,540.98c-.41-2.22,.77-4.04,1.95-4.27,1.27-.25,3.25,1.23,3.41,3.78,2-1.3,4.03-1.04,4.51-.24,.46,.77-.2,2.58-2.07,3.78,1.93,1.59,2.62,3.59,2.07,4.39-.58,.84-2.91,.9-5.24-.73-1.64,2.47-3.7,3.53-4.51,3.05-.78-.47-.81-2.67,.37-5.12-2.83,.21-4.96-.56-5.12-1.46-.16-.92,1.65-2.46,4.63-3.17Z"/>
            <path class="cls-14" d="M413.25,599.17c1.11-1.57,2.87-2.02,3.67-1.5,.86,.56,1.08,2.56-.37,4.2,1.91,.33,2.89,1.62,2.68,2.37-.2,.73-1.67,1.45-3.44,1.14,.12,2.04-.69,3.64-1.49,3.82-.83,.19-2.18-1.08-2.5-3.37-2.41,.58-4.21,.08-4.37-.67-.16-.72,1.16-2.07,3.3-2.9-1.72-1.45-2.44-3.11-1.99-3.74,.46-.65,2.41-.57,4.51,.66Z"/>
            <path class="cls-14" d="M503.11,564.75c-1.09-1.34-1.09-2.95-.48-3.5,.66-.59,2.38-.28,3.45,1.36,.68-1.54,1.97-2.05,2.56-1.68,.57,.35,.86,1.78,.22,3.21,1.74,.41,2.91,1.5,2.89,2.22-.02,.75-1.37,1.58-3.36,1.28-.02,2.19-.83,3.6-1.49,3.55-.64-.05-1.49-1.5-1.74-3.53-1.58,1.1-3.13,1.3-3.57,.75-.45-.56,.03-2.19,1.51-3.67Z"/>
          </g>
          <text class="cls-2" transform="translate(534.21 574.26)"><tspan x="0" y="0">Skys </tspan><tspan class="cls-23" x="75.09" y="0">th</tspan><tspan class="cls-21" x="101.52" y="0">e Lim</tspan><tspan class="cls-22" x="168.24" y="0">it</tspan></text>
          <text class="cls-4" transform="translate(577.95 574.26)"><tspan x="0" y="0">‘</tspan></text>
          <text class="cls-1" transform="translate(490.98 601.44)"><tspan x="0" y="0">Apparel, Acessories, and more!</tspan></text>
        </g>
      </g>
      <g>
        <rect class="cls-3" y="381.03" width="360" height="360"/>
        <g>
          <path class="cls-12" d="M62.24,555.55s-4.14,8.72,4.27,10.06c0,0,5.49,1.1,7.56-4.51,0,0,1.58-3.78-2.68-5,0,0-3.66-.12-2.68,3.9"/>
          <path class="cls-12" d="M43.04,592.68s-2.01-7.56,3.47-9.51c0,0,7.07-3.05,8.66,3.41,0,0,1.71,6.83-5.73,5.12,0,0-2.2-1.46-.43-3.05"/>
          <path class="cls-12" d="M109.42,584.63s-13.72-1.15-10.97-9.86c0,0,2.97-6.31,6.86-3.47,0,0,5.69,3.69,1.26,6.29-4.29,2.52-3.94-2.62-3.77-2.36"/>
          <path class="cls-11" d="M86.86,533.84c3.93-2.95,7.04-4.46,11.94-5.28,12.6-2.09,30.73,8.63,25.96,22.92-2.16,6.49-12.47,11.47-14.85,8.81"/>
          <path class="cls-9" d="M38.01,510.61s-2.73,10.18,9.47,15.63c3.35,1.5,7.07,1.94,10.68,1.3,10.54-1.89,19.66-8.48,28.46-14.32,12.63-8.37,25.48-6.46,36.89-1.57,9.86,4.22,20.9,15.07,23.18,26,1.56,7.46,4.48,32.03-30.37,40.73"/>
          <path class="cls-13" d="M109.91,560.3c4.65-2.61,10.09-6.96,9.7-12.9s-5.94-9.67-10.58-11.95c-5.13-2.52-11.22-3.57-17.03-2.82-10.11,1.31-14.17,7.59-29.94,12.2-7.29,2.13-10.91,2.29-18.47,1.07-6.23-1-15.24-5.81-18.31-11.14-2.85-4.94-2.52-11.11,.74-15.78,2.34-3.36,6.02-7.51,10.41-8.55,2.93-.69,5.2,6.47,6.79,8.33,8.32,9.73,22.12,4.37,31.17-1.33,6.11-3.85,11.05-9.46,17.95-12.01,6.12-2.26,12.88-2.77,19.31-1.76,7.15,1.12,13.85,4.07,20.03,7.78,19.03,11.44,29.68,40.51,12.02,57.98-1.19,1.18-2.5,2.25-3.92,3.14-7.02,4.41-16.27,8.37-24.71,7.61"/>
          <path class="cls-11" d="M13.3,540.36c-.41-2.22,.77-4.04,1.95-4.27,1.27-.25,3.25,1.23,3.41,3.78,2-1.3,4.03-1.04,4.51-.24,.46,.77-.2,2.58-2.07,3.78,1.93,1.59,2.62,3.59,2.07,4.39-.58,.84-2.91,.9-5.24-.73-1.64,2.47-3.7,3.53-4.51,3.05-.78-.47-.81-2.67,.37-5.12-2.83,.21-4.96-.56-5.12-1.46-.16-.92,1.65-2.46,4.63-3.17Z"/>
          <path class="cls-11" d="M33.25,598.54c1.11-1.57,2.87-2.02,3.67-1.5,.86,.56,1.08,2.56-.37,4.2,1.91,.33,2.89,1.62,2.68,2.37-.2,.73-1.67,1.45-3.44,1.14,.12,2.04-.69,3.64-1.49,3.82-.83,.19-2.18-1.08-2.5-3.37-2.41,.58-4.21,.08-4.37-.67-.16-.72,1.16-2.07,3.3-2.9-1.72-1.45-2.44-3.11-1.99-3.74,.46-.65,2.41-.57,4.51,.66Z"/>
          <path class="cls-11" d="M123.11,564.12c-1.09-1.34-1.09-2.95-.48-3.5,.66-.59,2.38-.28,3.45,1.36,.68-1.54,1.97-2.05,2.56-1.68,.57,.35,.86,1.78,.22,3.21,1.74,.41,2.91,1.5,2.89,2.22-.02,.75-1.37,1.58-3.36,1.28-.02,2.19-.83,3.6-1.49,3.55-.64-.05-1.49-1.5-1.74-3.53-1.58,1.1-3.13,1.3-3.57,.75-.45-.56,.03-2.19,1.51-3.67Z"/>
          <text class="cls-17" transform="translate(154.21 573.63)"><tspan x="0" y="0">Skys </tspan><tspan class="cls-23" x="75.09" y="0">th</tspan><tspan class="cls-21" x="101.52" y="0">e Lim</tspan><tspan class="cls-22" x="168.24" y="0">it</tspan></text>
          <text class="cls-18" transform="translate(197.95 573.63)"><tspan x="0" y="0">‘</tspan></text>
          <text class="cls-5" transform="translate(110.98 600.82)"><tspan x="0" y="0">Apparel, Acessories, and more!</tspan></text>
          <path class="cls-12" d="M62.24,555.55c4.47-8.68,13.97-13.26,22.86-11.34,7.34,1.59,13.27,7.42,15.36,15,8.81-1.67,16.64,4.21,17.56,11.34,.7,5.48-2.73,11.33-8.59,14.08-.15,.85-1.7,9.1-9.33,12.8-6.34,3.08-14.26,1.72-19.75-3.47-.69,.96-6.77,9.19-17.56,9.51-12.56,.37-19.46-10.33-19.75-10.79-.64,.29-4.36,1.91-8.23,.18-3.77-1.68-6.14-5.84-5.85-10.42-5.41-2.62-8.66-7.65-8.05-11.89,.83-5.74,8.92-11.13,18.1-8.23,1.48-5.57,5.94-9.74,11.34-10.61,6.58-1.06,11.33,3.31,11.89,3.84Z"/>
        </g>
      </g>
    </g>
  </g>
</svg>