<?xml version="1.0" encoding="utf-8"?>
<!-- Generator: Adobe Illustrator 28.0.0, SVG Export Plug-In . SVG Version: 6.00 Build 0)  -->
<svg version="1.1" id="Layer_1" xmlns="http://www.w3.org/2000/svg" xmlns:xlink="http://www.w3.org/1999/xlink" x="0px" y="0px"
	 viewBox="0 0 1000 1000" style="enable-background:new 0 0 1000 1000;" xml:space="preserve">
<style type="text/css">
	.st0{fill:#FFFFFF;}
</style>
<path class="st0" d="M95,230c4.8,4.5,4.7,8.9,0.2,13.3c-4.7,4.7-9.6,9.2-13.6,13c10.2,10.3,18.7,18.9,28.6,28.8
	c4.8-5.7,9-11,13.4-16.2c4.1-4.8,8.3-3.5,12.4,0.2c4.4,3.9,5.3,8.2,0.9,12.5c-5,5-10.3,9.6-15.3,14.1c10.7,10.4,19.4,18.9,29.1,28.4
	c4.7-5.5,9.1-10.7,13.6-15.7c4.5-4.9,9-3.9,13.3,0.4s4,8.5-0.2,12.6c-4.8,4.7-9.6,9.3-14.7,14.2c10.5,10,19.3,18.3,29.3,27.8
	l12.7-15c4-4.8,8.5-5.4,13.3-1c4.7,4.3,4.6,8.9,0.1,13.4c-4.8,4.6-9.6,9.2-13.5,13c10.1,10.1,18.7,18.7,29.2,29
	c2.9-4.1,5.4-8.2,8.6-11.8c4.4-4.9,8.6-11.9,16.4-4.6c8.3,7.7,1.3,12.6-3.5,17.5c-3.4,3.5-7.5,6.1-11.5,9.4
	c11.1,10.4,20,18.7,30.7,28.7c3.9-5,7.8-10.1,11.8-15.1c4.3-5.2,8.8-6.1,13.9-1c4.8,4.7,4.1,9.2-0.3,13.4c-4.7,4.4-9.5,8.6-14,12.7
	c8.3,8.3,14.8,14.7,19.8,19.7c51.9-55.8,103.6-111.4,155.5-167.3c0.1,0.2-0.7-0.8-1.6-1.7c-71.2-68.1-142.4-136.1-213.5-204.2
	c-29.9-28.6-59.5-57.3-89.2-86l-2,0.1c-6.1,6.9-12.2,13.9-18.5,20.8C93.2,79.8,50.1,126.3,6.9,172.7c-2.2,2.3-4.6,4.4-6.9,6.6
	l0.1,1.9c8.9,8.2,17.9,16.4,28.1,25.7c4-5,7.6-9.5,11.4-14c4.1-5,8.4-7.9,14.4-2.2c5.9,5.5,4.3,10.1-0.7,14.7
	c-4.4,4.2-8.9,8.3-12.9,12.1c10.2,10.3,18.8,19,28.3,28.5c4.7-5.4,8.9-10.3,13.1-15.2C85.9,225.9,90.2,225.6,95,230L95,230z
	 M685.9,519.9c-1.6,1.5-3,2.7-4.3,4.1c-42.7,45.9-85.5,91.7-127.9,137.8c-7.7,8.4-13.8,18.2-20.4,26.9c8.8,8.8,17.3,17.4,26.7,26.9
	c4.8-5.5,9-10.3,13.2-15.2c4.2-4.7,8.7-5.3,13.3-0.7c4.4,4.4,4.6,9.1,0,13.6c-4.7,4.6-9.5,9.1-13.6,13
	c10.7,10.7,19.7,19.8,29.7,29.9c4.6-5.5,8.7-10.5,12.9-15.3c4.1-4.8,8.4-5.3,13.2-0.7c4.7,4.4,5.1,8.8,0.4,13.3
	c-4.7,4.7-9.5,9.4-14.6,14.3c10.5,10,19.3,18.5,29.5,28.3c4.6-5.6,8.7-10.9,13.1-16c4.3-5,8.9-4.3,13.3,0c4.4,4.2,4.2,8.4,0.1,12.6
	c-4.6,4.9-9.3,9.6-14,14.3c9.8,9.6,18.5,18,29,28.2c4.3-5.5,8.2-10.6,12.2-15.6c4.1-5.1,8.6-5,13.3-0.8c4.8,4.3,4.9,9,0.3,13.4
	c-4.7,4.7-9.8,9.1-14.5,13.3c10.5,10.3,19.2,18.8,29.7,29.1c4.5-5.7,8.6-11.1,12.9-16.3c4.3-5.3,8.8-4,13.2,0.2s4.1,8.4-0.1,12.6
	c-4.8,4.7-9.5,9.5-14.4,14.4c10.5,9.9,19.7,18.7,30.5,29c4.5-5.4,8.6-10.6,13.1-15.7c3.8-4.4,8.1-4.6,12.5-0.5
	c4.6,4.3,5.1,8.9,0.5,13.4c-4.8,4.7-9.9,9.2-14.1,13.1c10.7,10.1,19.7,18.6,29.8,28.1c3.3-3.9,7.1-8.3,10.8-12.7
	c4.1-4.9,8.3-8.1,14.4-2.4c5.8,5.5,4.2,10.2-0.8,14.8c-4.5,4.1-9.2,8.1-13.9,12.2c9.4,9.1,16.8,16.2,23.5,22.7
	c52-55.9,103.9-111.6,155.6-167.3C895.9,720.7,791.3,620.7,685.9,519.9L685.9,519.9z M906.2,137.2l1.4-1.4L832,56.3
	c-1.8,1.6-3,2.7-4.1,3.9C635.2,267.6,442.6,475,250.1,682.5c-3,3.4-4.7,9.1-4.7,13.8c0.1,18.2,1.2,36.4,2,54.6
	c0.2,4.6,0.8,9.4,1.2,14.4c22.6-0.6,44-1.5,65.6-1.8c7.6,0.1,12.9-2.5,18.2-8.1C523.6,549.2,714.8,343.3,906.2,137.2L906.2,137.2z
	 M927.3,202.1c0.5-12.6-0.4-25.2-0.9-40.5c-3.6,3.6-5.2,5.2-6.7,6.8C726.6,376.3,533.5,584.2,340.5,792.1c-1.8,1.9-4.2,3.8-4.8,6.1
	c-4.3,18.4-8.2,36.9-12.2,55.4c4-1.4,6.3-3.5,8.5-5.8c36.5-39.3,73-78.6,109.5-117.9C601.4,557.7,761.3,385.6,921,213.4
	C923.9,210.3,927.2,206,927.3,202.1L927.3,202.1z M158.5,689.5c16-3.5,29.6-5.8,42.8-9.7c6.6-2,13.6-5.8,18.3-10.8
	C410.5,463.9,601.1,258.6,791.8,53.3c2.2-2.4,4.9-4.2,7.4-6.4l-1.5-2.8c-11.1,0.3-22.3,0.1-33.3,1.3c-4.9,0.5-10.7,2.6-13.9,6.1
	C555.2,261.3,360.1,471.4,165.1,681.4C163.3,683.3,161.7,685.5,158.5,689.5L158.5,689.5z M126.6,856.3c18-50.1,35.7-99.5,54-150.6
	c-10.8,2.4-19,4.9-27.5,6.1c-5.8,0.8-8.1,3.6-9.8,8.8c-23.4,73.1-47.1,146.2-70.4,219.3c-1.2,3.9-1.5,10.9,0.6,12.3
	c3.1,2.1,9.1,2,13,0.5c69.7-26.7,139.3-53.7,208.9-80.9c2.3-0.9,5.4-3,5.8-5.1c2.2-10.3,3.6-20.8,5.4-32.5
	c-47.5,20.3-93.4,40-140.3,60C159.6,874.6,146.1,862.6,126.6,856.3L126.6,856.3z"/>
</svg>
